<svg width="9775" height="1681" viewBox="0 0 9775 1681" fill="none" xmlns="http://www.w3.org/2000/svg">
<path d="M667.748 962.834H246.605L244.359 704.533H585.766C647.159 704.533 696.199 697.795 732.885 684.318C769.571 670.093 796.15 649.504 812.621 622.551C829.841 595.598 838.451 561.906 838.451 521.477C838.451 475.057 829.841 437.622 812.621 409.172C795.401 380.721 768.074 360.132 730.639 347.404C693.952 333.928 646.41 327.189 588.012 327.189H394.848V1658H0.658203V22.8438H588.012C689.086 22.8438 779.304 32.2025 858.666 50.9199C938.028 68.8887 1005.41 96.5905 1060.81 134.025C1116.97 171.46 1159.64 218.628 1188.84 275.529C1218.04 331.682 1232.64 397.941 1232.64 474.309C1232.64 540.943 1218.42 603.459 1189.96 661.857C1161.51 720.256 1113.97 767.798 1047.34 804.484C981.452 840.422 891.234 859.139 776.684 860.637L667.748 962.834ZM652.025 1658H151.146L285.912 1354.78H652.025C705.932 1354.78 748.982 1346.54 781.176 1330.07C814.118 1312.85 837.702 1290.39 851.928 1262.69C866.902 1234.24 874.389 1202.79 874.389 1168.35C874.389 1126.42 867.276 1090.11 853.051 1059.42C839.574 1028.72 817.862 1005.14 787.914 988.664C757.966 971.444 717.911 962.834 667.748 962.834H336.449L338.695 704.533H735.131L827.221 807.854C936.531 803.361 1023.01 818.71 1086.64 853.898C1151.03 889.087 1197.08 935.507 1224.78 993.156C1252.48 1050.81 1266.33 1111.08 1266.33 1173.97C1266.33 1281.03 1243.12 1370.5 1196.7 1442.38C1151.03 1514.25 1082.53 1568.16 991.186 1604.09C899.844 1640.03 786.791 1658 652.025 1658ZM2518.44 22.8438H2827.28V1108.83C2827.28 1233.86 2800.32 1339.05 2746.42 1424.41C2692.51 1509.01 2619.14 1573.02 2526.3 1616.45C2433.46 1659.12 2327.9 1680.46 2209.6 1680.46C2089.81 1680.46 1983.12 1659.12 1889.53 1616.45C1795.95 1573.02 1722.57 1509.01 1669.42 1424.41C1616.26 1339.05 1589.68 1233.86 1589.68 1108.83V22.8438H1898.52V1108.83C1898.52 1185.2 1911.25 1247.71 1936.7 1296.38C1962.16 1344.3 1998.09 1379.86 2044.51 1403.07C2090.93 1426.28 2145.96 1437.88 2209.6 1437.88C2273.99 1437.88 2329.02 1426.28 2374.69 1403.07C2421.11 1379.86 2456.67 1344.3 2481.38 1296.38C2506.09 1247.71 2518.44 1185.2 2518.44 1108.83V22.8438ZM3521.23 22.8438V1658H3212.39V22.8438H3521.23ZM4502.77 22.8438L3846.91 820.207L3471.82 1221.13L3416.79 921.281L3677.33 583.244L4124.31 22.8438H4502.77ZM4159.12 1658L3650.38 892.082L3871.62 692.18L4526.36 1658H4159.12ZM5671.78 22.8438H5980.61V1108.83C5980.61 1233.86 5953.66 1339.05 5899.75 1424.41C5845.85 1509.01 5772.48 1573.02 5679.64 1616.45C5586.8 1659.12 5481.23 1680.46 5362.94 1680.46C5243.15 1680.46 5136.46 1659.12 5042.87 1616.45C4949.28 1573.02 4875.91 1509.01 4822.75 1424.41C4769.59 1339.05 4743.02 1233.86 4743.02 1108.83V22.8438H5051.85V1108.83C5051.85 1185.2 5064.58 1247.71 5090.04 1296.38C5115.49 1344.3 5151.43 1379.86 5197.85 1403.07C5244.27 1426.28 5299.3 1437.88 5362.94 1437.88C5427.33 1437.88 5482.35 1426.28 5528.03 1403.07C5574.44 1379.86 5610.01 1344.3 5634.71 1296.38C5659.42 1247.71 5671.78 1185.2 5671.78 1108.83V22.8438Z" fill="black"/>
<path d="M6841.9 1658H6500.49L6502.74 1481.68H6841.9C6958.7 1481.68 7056.03 1457.35 7133.89 1408.68C7211.76 1359.27 7270.16 1290.39 7309.09 1202.04C7348.77 1112.95 7368.61 1008.88 7368.61 889.836V789.885C7368.61 696.298 7357.38 613.192 7334.92 540.568C7312.46 467.196 7279.51 405.428 7236.09 355.266C7192.67 304.354 7139.51 265.796 7076.62 239.592C7014.48 213.387 6942.97 200.285 6862.12 200.285H6493.76V22.8438H6862.12C6969.18 22.8438 7066.88 40.8125 7155.23 76.75C7243.58 111.939 7319.57 163.225 7383.21 230.607C7447.6 297.242 7497.01 378.101 7531.45 473.186C7565.89 567.521 7583.11 673.837 7583.11 792.131V889.836C7583.11 1008.13 7565.89 1114.82 7531.45 1209.9C7497.01 1304.24 7447.22 1384.73 7382.09 1451.36C7317.7 1517.99 7239.83 1569.28 7148.49 1605.22C7057.9 1640.41 6955.7 1658 6841.9 1658ZM6616.17 22.8438V1658H6399.42V22.8438H6616.17ZM8296.25 22.8438L8012.12 1658H7800.98L8085.11 22.8438H8296.25ZM9774.18 788.762V892.082C9774.18 1014.87 9758.83 1124.93 9728.13 1222.26C9697.43 1319.59 9653.26 1402.32 9595.61 1470.45C9537.96 1538.58 9468.71 1590.62 9387.85 1626.55C9307.74 1662.49 9217.89 1680.46 9118.32 1680.46C9021.73 1680.46 8933.01 1662.49 8852.15 1626.55C8772.04 1590.62 8702.41 1538.58 8643.27 1470.45C8584.87 1402.32 8539.57 1319.59 8507.38 1222.26C8475.18 1124.93 8459.09 1014.87 8459.09 892.082V788.762C8459.09 665.975 8474.81 556.291 8506.26 459.709C8538.45 362.378 8583.75 279.647 8642.14 211.516C8700.54 142.635 8769.8 90.2266 8849.91 54.2891C8930.77 18.3516 9019.49 0.382812 9116.07 0.382812C9215.65 0.382812 9305.49 18.3516 9385.6 54.2891C9466.46 90.2266 9535.72 142.635 9593.37 211.516C9651.76 279.647 9696.31 362.378 9727.01 459.709C9758.45 556.291 9774.18 665.975 9774.18 788.762ZM9559.67 892.082V786.516C9559.67 689.185 9549.57 603.085 9529.35 528.215C9509.89 453.345 9481.06 390.454 9442.88 339.543C9404.69 288.632 9357.9 250.074 9302.5 223.869C9247.84 197.665 9185.7 184.562 9116.07 184.562C9048.69 184.562 8987.67 197.665 8933.01 223.869C8879.11 250.074 8832.69 288.632 8793.76 339.543C8755.57 390.454 8726 453.345 8705.04 528.215C8684.07 603.085 8673.59 689.185 8673.59 786.516V892.082C8673.59 990.161 8684.07 1077.01 8705.04 1152.63C8726 1227.5 8755.95 1290.76 8794.88 1342.42C8834.56 1393.34 8881.35 1431.89 8935.26 1458.1C8989.91 1484.3 9050.93 1497.4 9118.32 1497.4C9188.69 1497.4 9251.21 1484.3 9305.87 1458.1C9360.52 1431.89 9406.57 1393.34 9444 1342.42C9482.18 1290.76 9511.01 1227.5 9530.47 1152.63C9549.94 1077.01 9559.67 990.161 9559.67 892.082Z" fill="black" fill-opacity="0.8"/>
<path d="M1452.67 1882.61H3055.17V1994.91H1452.67V1882.61ZM4606 1882.61H6208.5V1994.91H4606V1882.61Z" fill="black"/>
</svg>
